<?xml version="1.0" encoding="UTF-8"?>
<!DOCTYPE svg PUBLIC "-//W3C//DTD SVG 1.1//EN" "http://www.w3.org/Graphics/SVG/1.1/DTD/svg11.dtd">
<!-- Creator: CorelDRAW 2017 -->
<svg xmlns="http://www.w3.org/2000/svg" xml:space="preserve" width="21.3905mm" height="19.2136mm" version="1.1" style="shape-rendering:geometricPrecision; text-rendering:geometricPrecision; image-rendering:optimizeQuality; fill-rule:evenodd; clip-rule:evenodd"
viewBox="0 0 463.9 416.69"
 xmlns:xlink="http://www.w3.org/1999/xlink">
 <defs>
  <style type="text/css">
   <![CDATA[
    .fil0 {fill:black;fill-rule:nonzero}
    .fil1 {fill:#BE2D21;fill-rule:nonzero}
    .fil2 {fill:red;fill-rule:nonzero}
   ]]>
  </style>
 </defs>
 <g id="Layer_x0020_1">
  <metadata id="CorelCorpID_0Corel-Layer"/>
  <polygon class="fil0" points="0.04,303.28 0.04,59.17 166.31,59.17 208.79,110.93 59.33,110.93 59.33,154.44 168.99,154.44 168.99,204.77 59.33,204.77 59.33,251.85 214.5,251.85 178.69,303.28 -0,303.28 "/>
  <path class="fil1" d="M327.39 114.1l-0.76 -2.85c0.28,0.96 0.52,1.93 0.76,2.85z"/>
  <polygon class="fil1" points="287.63,182.55 284.88,178.83 260.01,140.03 262.21,141.68 288.66,181.03 287.59,182.54 "/>
  <path class="fil2" d="M333.34 121.56l-7.67 -14.45c0.21,1.31 0.55,2.68 0.89,4.03l-1.93 -7.33c-0.41,-0.65 -0.83,-1.27 -1.27,-1.93l-11.11 -10.08 -4.4 -4.27c-8.01,-9.8 -11.9,-21.6 -20.29,-31.2l-9.01 -9.32c-0.45,-0.52 -0.86,-1.07 -1.31,-1.58l-14.65 -11.63c-4.13,-2.37 -8.56,-4.95 -13.35,-3.78l1.2 8.5 1.03 1.58c3.92,4.88 8.67,9.05 13.04,13.52l0.48 1.07c-1.2,1.24 -3.13,0.93 -4.33,2.06l1.82 2.37 -7.53 0c-6.05,-6.6 -11.49,-13.79 -15.38,-22.36l-12.07 -12.38c-2.99,-2 -7.53,-5.19 -11.25,-4.54l5.02 7.09 8.87 11.28c-0.45,1.2 -0.83,1.51 -1.82,2.31l-3.51 4.27 -1.13 2.13c-1.27,-0.65 -1.89,-3.61 -2.44,-4.92l-8.6 -13.62 -15.17 -9.49c-4.54,-1.37 -8.05,-2.17 -12.18,-4.68l-8.43 -10.25 -5.61 -3.65c-1.51,-0.38 -3.4,-0.65 -4.47,0.65l0.14 1.03 44.58 50.15c0.55,0.79 1.1,1.58 1.55,2.44l-1.51 2.48c-0.14,0.45 -0.17,0.89 -0.28,1.31l-0.79 -0.89c-1,-1.41 -2.03,-2.79 -3.06,-4.13l-18.61 -18.06c-5.33,-4.16 -11.01,-8.5 -17.95,-8.81l-2.48 1.93 0.62 4.51c12.55,22.15 33.71,38.08 48.05,58.96l4.68 7.5c10.87,15.24 23.6,29 34.29,44.37l4.57 7.57 3.13 5.33c6.71,9.94 14.86,18.64 22.43,27.86l-80.97 115.5 0 3.23 69.04 0 50.32 -76.95 18.09 27.45c26.14,41.65 53.83,82.35 79.25,124.52l10.42 20.29c2.92,5.5 6.02,12.49 11.73,15.41l2.48 -1.41 -0.59 -3.27c-6.47,-20.23 -15.31,-39.56 -23.87,-58.92l3.37 6.19c4.78,9.22 9.25,18.58 13.93,27.83l3.16 6.05c1.65,2.99 3.34,5.92 5.06,8.87l4.88 11.04c0.89,2.51 1.55,4.47 3.61,6.23l4.75 0.1 0.93 -3.37c1.03,-3.75 -2.37,-7.77 -3.92,-11.32l-2.89 -6.95c1.1,1.1 1.79,2.17 2.72,3.44l2.72 2.61c1.07,-0.93 0.62,-2.85 0.48,-4.13l-1.17 -5.99 -3.44 -12.11c-1.44,-4.23 -2.92,-8.46 -4.44,-12.69l-5.3 -13.14c-2,-4.47 -3.99,-8.91 -6.02,-13.38l-19.33 -36.39c3.92,-0.34 5.16,4.92 9.73,12.24 11.97,19.23 27.69,55.62 31.51,64.77 0.48,0.76 0.96,1.51 1.51,2.24l-0.38 -2.85c-11.11,-35.02 -51.32,-124.86 -71.44,-153.55l-2.37 -4.95 -3.72 -7.09 -0.38 -0.72 -22.22 -36.6 76.94 -114.37 0 -3.23 -68.65 0 -38.39 62.43 0.04 -0.04z"/>
 </g>
</svg>
