<?xml version="1.0" encoding="UTF-8"?>
<!DOCTYPE svg PUBLIC "-//W3C//DTD SVG 1.1//EN" "http://www.w3.org/Graphics/SVG/1.1/DTD/svg11.dtd">
<!-- Creator: CorelDRAW 2017 -->
<svg xmlns="http://www.w3.org/2000/svg" xml:space="preserve" width="69.9961mm" height="19.4004mm" version="1.1" style="shape-rendering:geometricPrecision; text-rendering:geometricPrecision; image-rendering:optimizeQuality; fill-rule:evenodd; clip-rule:evenodd"
viewBox="0 0 6141.96 1702.33"
 xmlns:xlink="http://www.w3.org/1999/xlink">
 <defs>
  <style type="text/css">
   <![CDATA[
    .fil1 {fill:red;fill-rule:nonzero}
    .fil0 {fill:white;fill-rule:nonzero}
   ]]>
  </style>
 </defs>
 <g id="Layer_x0020_1">
  <metadata id="CorelCorpID_0Corel-Layer"/>
  <path class="fil0" d="M-0 1226.92l0 -987.68 722.99 0 0 209.45 -482.93 0 0 176.05 443.68 0 0 203.61 -443.68 0 0 190.52 482.93 0 0 208.06 -722.99 0zm5613.7 -735.09l-31.04 -58.45c0.83,5.29 2.23,10.85 3.62,16.29l-7.79 -29.64c-1.67,-2.64 -3.34,-5.15 -5.15,-7.79l-44.95 -40.78 -17.81 -17.26c-32.42,-39.66 -48.16,-87.4 -82.11,-126.22l-36.46 -37.71c-1.81,-2.09 -3.48,-4.32 -5.29,-6.41l-59.29 -47.04c-16.7,-9.6 -34.65,-20.04 -54,-15.31l4.87 34.38 4.18 6.41c15.86,19.76 35.07,36.6 52.74,54.69l1.95 4.32c-4.87,5.01 -12.66,3.76 -17.53,8.35l7.38 9.6 -30.47 0c-24.49,-26.72 -46.48,-55.81 -62.21,-90.46l-48.85 -50.1c-12.11,-8.07 -30.47,-21.02 -45.51,-18.37l20.32 28.67 35.91 45.65c-1.81,4.87 -3.34,6.12 -7.38,9.33l-14.2 17.26 -4.59 8.63c-5.15,-2.64 -7.65,-14.61 -9.88,-19.9l-34.79 -55.11 -61.37 -38.41c-18.37,-5.56 -32.56,-8.77 -49.27,-18.93l-34.1 -41.47 -22.68 -14.75c-6.12,-1.53 -13.78,-2.64 -18.09,2.64l0.55 4.18 180.36 202.92c2.23,3.2 4.46,6.41 6.27,9.88l-6.12 10.02c-0.55,1.81 -0.69,3.62 -1.11,5.29l-3.2 -3.62c-4.04,-5.7 -8.21,-11.28 -12.39,-16.7l-75.29 -73.07c-21.57,-16.84 -44.53,-34.38 -72.65,-35.63l-10.02 7.79 2.5 18.23c50.8,89.62 136.39,154.06 194.42,238.54l18.93 30.34c43.98,61.65 95.47,117.32 138.75,179.53l18.51 30.61 12.66 21.57c27.14,40.22 60.12,75.43 90.74,112.73l-327.6 467.32 0 13.08 279.32 0 203.61 -311.33 73.21 111.06c105.77,168.54 217.81,333.18 320.65,503.8l42.16 82.11c11.83,22.27 24.36,50.52 47.45,62.34l10.02 -5.7 -2.37 -13.22c-26.17,-81.83 -61.93,-160.04 -96.57,-238.4l13.64 25.05c19.34,37.3 37.42,75.16 56.35,112.59l12.8 24.49c6.68,12.11 13.5,23.94 20.45,35.91l19.76 44.67c3.62,10.16 6.27,18.09 14.61,25.19l19.21 0.42 3.76 -13.64c4.18,-15.17 -9.6,-31.45 -15.86,-45.79l-11.69 -28.11c4.46,4.46 7.24,8.77 10.99,13.92l10.99 10.57c4.32,-3.76 2.5,-11.55 1.95,-16.7l-4.73 -24.22 -13.92 -48.99c-5.84,-17.12 -11.83,-34.24 -17.95,-51.35l-21.44 -53.17c-8.07,-18.09 -16.15,-36.05 -24.36,-54.14l-78.21 -147.24c15.86,-1.4 20.88,19.9 39.38,49.54 48.43,77.8 112.04,225.04 127.48,262.06 1.95,3.06 3.9,6.12 6.12,9.05l-1.53 -11.55c-44.95,-141.68 -207.64,-505.19 -289.05,-621.26l-9.6 -20.04 -15.03 -28.67 -1.53 -2.92 -89.91 -148.06 311.32 -462.74 0 -13.08 -277.77 0 -155.31 252.6 0.15 -0.18zm-184.95 246.75l-11.14 -15.03 -100.62 -156.99 8.91 6.68 107.03 159.21 -4.32 6.12 0.14 0.01zm160.88 -276.95l-3.06 -11.55c1.11,3.9 2.09,7.79 3.06,11.55zm-4172.74 382.86l351.96 369.49 0 13.08 -288.08 0 -334.56 -391.34 0 391.34 -240.07 0 0 -987.68 446.6 0c115.37,0 208.2,26.17 278.62,78.49 70.29,52.33 105.49,130.4 105.49,234.22 0,84.33 -28.81,154.2 -86.56,209.45 -57.76,55.25 -129.71,82.95 -215.99,82.95l-17.4 0 -0.01 0zm-270.55 -167.29l206.53 0c39.8,0 72.79,-10.44 98.95,-31.32 26.17,-20.88 39.25,-49.68 39.25,-86.56 0,-36.88 -12.8,-65.41 -38.55,-85.87 -25.75,-20.32 -58.87,-30.47 -99.65,-30.47l-206.53 0 0 234.22 -0.01 0zm996.47 549.86l-350.57 -974.61 0 -13.08 258.85 0 237.15 741.91 235.62 -741.91 258.85 0 0 13.08 -349.17 974.61 -290.86 0 0.14 0zm765.16 0l0 -987.68 240.07 0 0 987.68 -240.07 0zm677.9 0l0 -778.24 -302.56 0 0 -209.45 846.58 0 0 209.45 -303.95 0 0 778.24 -240.07 0zm679.29 0l0 -987.68 672.74 0 171.88 209.45 -604.7 0 0 176.05 443.68 0 0 203.61 -443.68 0 0 190.52 627.8 0 -144.88 208.06 -722.98 0 0.15 0z"/>
  <path class="fil1" d="M487.8 1488.15l-39.39 0 0 170.34 26.72 0 0 -64.02 12.66 0c26.72,0 39.94,-14.89 39.94,-42.03l0 -22.13c0,-27.28 -13.08,-42.17 -39.94,-42.17l0.01 0.01zm0 24.36c8.49,0 13.08,3.9 13.08,16.01l0 25.6c0,12.11 -4.59,16.01 -13.08,16.01l-12.66 0 0 -57.61 12.66 0zm206.53 145.98c-2.64,-6.27 -2.92,-12.39 -2.92,-20.73l0 -26.31c0,-17.81 -4.32,-30.61 -17.81,-36.33 11.97,-5.56 17.53,-16.98 17.53,-34.51l0 -13.36c0,-26.31 -11.97,-39.25 -39.66,-39.25l-40.36 0 0 170.34 26.72 0 0 -69.3 9.19 0c12.11,0 17.53,5.84 17.53,21.71l0 26.72c0,13.92 0.97,16.56 2.37,20.88l27.28 0 0.14 0.15zm-43.57 -145.98c9.47,0 13.64,5.29 13.64,17.53l0 16.84c0,13.64 -6.12,17.95 -16.01,17.95l-10.44 0 0 -52.33 12.94 0 -0.13 0.01zm153.65 14.89c0,-12.11 5.29,-16.84 13.92,-16.84 8.49,0 13.92,4.59 13.92,16.84l0 91.99c0,12.11 -5.29,16.84 -13.92,16.84 -8.49,0 -13.92,-4.59 -13.92,-16.84l0 -91.99zm-26.72 90.32c0,27.28 14.34,42.86 40.64,42.86 26.31,0 40.63,-15.58 40.63,-42.86l0 -88.51c0,-27.28 -14.33,-42.86 -40.63,-42.86 -26.31,0 -40.64,15.58 -40.64,42.86l0 88.51zm206.52 -129.43l-37.3 0 0 170.34 23.38 0 0 -120.52 19.9 120.52 25.33 0 18.51 -122.19 0 122.19 25.33 0 0 -170.34 -37.3 0 -18.23 120.94 -19.76 -120.94 0.14 0zm190.1 39.25c0,-12.11 5.29,-16.84 13.92,-16.84 8.49,0 13.92,4.59 13.92,16.84l0 91.99c0,12.11 -5.29,16.84 -13.92,16.84 -8.49,0 -13.92,-4.59 -13.92,-16.84l0 -91.99zm-26.72 90.32c0,27.28 14.34,42.86 40.64,42.86 26.31,0 40.64,-15.58 40.64,-42.86l0 -88.51c0,-27.28 -14.34,-42.86 -40.64,-42.86 -26.31,0 -40.64,15.58 -40.64,42.86l0 88.51zm369.5 -129.43l-39.25 0 -27.28 170.34 24.63 0 4.59 -30.9 32.84 0 4.59 30.9 27 0 -27.28 -170.34 0.16 0zm-20.88 30.19l12.94 86.15 -25.75 0 12.94 -86.15 -0.14 0zm170.91 -30.19l-39.39 0 0 170.34 26.72 0 0 -64.02 12.66 0c26.72,0 39.94,-14.89 39.94,-42.03l0 -22.13c0,-27.28 -13.08,-42.17 -39.94,-42.17l0.01 0.01zm0 24.35c8.49,0 13.08,3.9 13.08,16.01l0 25.6c0,12.11 -4.59,16.01 -13.08,16.01l-12.66 0 0 -57.61 12.66 0zm163.39 75.44l12.11 0 0 31.45c0,12.11 -5.29,16.56 -13.92,16.56 -8.49,0 -13.92,-4.32 -13.92,-16.56l0 -91.99c0,-12.11 5.29,-16.84 13.92,-16.84 8.49,0 13.92,4.59 13.92,16.84l0 18.23 25.33 0 0 -16.56c0,-27.28 -13.64,-42.86 -39.94,-42.86 -26.31,0 -39.94,15.58 -39.94,42.86l0 88.51c0,27.28 13.64,42.86 39.94,42.86 26.31,0 39.94,-15.58 39.94,-42.86l0 -54 -37.43 0 0 24.36 -0.01 0zm-4.87 101.03l-6.27 13.08 9.47 0 10.44 -15.58 0 -19.9 -22.41 0 0 22.41 8.77 0 0 -0.01zm157.26 -176.47l46.21 0 0 -24.36 -73.07 0 0 170.34 73.07 0 0 -24.36 -46.21 0 0 -49.82 36.74 0 0 -24.36 -36.74 0 0 -47.45 0 0.01zm-18.79 -53.3l0 18.93 55.95 0 0 -18.93 -55.95 0zm235.62 199.29c-2.64,-6.27 -2.92,-12.39 -2.92,-20.73l0 -26.31c0,-17.81 -4.32,-30.61 -17.81,-36.33 11.97,-5.56 17.53,-16.98 17.53,-34.51l0 -13.36c0,-26.31 -11.97,-39.25 -39.66,-39.25l-40.36 0 0 170.34 26.72 0 0 -69.3 9.19 0c12.11,0 17.53,5.84 17.53,21.71l0 26.72c0,13.92 0.97,16.56 2.5,20.88l27.28 0 0.01 0.15zm-43.56 -145.99c9.47,0 13.64,5.29 13.64,17.53l0 16.84c0,13.64 -6.12,17.95 -16.01,17.95l-10.44 0 0 -52.33 12.94 0 -0.13 0.01zm169.51 -24.35l-40.36 0 0 170.34 42.17 0c26.72,0 40.64,-14.06 40.64,-40.36l0 -13.92c0,-17.95 -5.56,-30.9 -19.9,-36.46 11.97,-5.56 17.26,-16.84 17.26,-34.38l0 -6.12c0,-26.31 -11.97,-39.25 -39.66,-39.25l-0.14 0.15zm-1.68 93.66c12.11,0 17.26,4.87 17.26,20.73l0 14.89c0,12.66 -4.87,16.84 -13.92,16.84l-15.31 0 0 -52.33 11.97 0 0 -0.13zm0.97 -69.31c9.47,0 13.64,5.29 13.64,17.53l0 9.47c0,13.64 -6.12,17.95 -16.01,17.95l-10.44 0 0 -45.09 12.94 0 -0.13 0.14zm129.99 145.99l26.72 0 0 -170.34 -26.72 0 0 170.34zm256.63 -170.34l0 129.71c0,27.28 13.64,42.86 39.94,42.86 26.31,0 39.94,-15.58 39.94,-42.86l0 -129.71 -25.33 0 0 131.38c0,12.11 -5.43,16.56 -13.92,16.56 -8.49,0 -13.92,-4.32 -13.92,-16.56l0 -131.38 -26.72 0zm226.15 170.34l27.55 0 0 -170.34 -23.8 0 0 102.01 -27.55 -102.01 -33.54 0 0 170.34 24.08 0 0 -123.3 33.41 123.3 -0.15 0zm317.72 -170.34l-39.25 0 -27.28 170.34 24.63 0 4.59 -30.9 32.84 0 4.59 30.9 27 0 -27.28 -170.34 0.16 0zm-20.88 30.19l12.94 86.15 -25.75 0 12.94 -86.15 -0.14 0zm170.91 -30.19l-39.39 0 0 170.34 26.72 0 0 -64.02 12.66 0c26.72,0 39.94,-14.89 39.94,-42.03l0 -22.13c0,-27.28 -13.08,-42.17 -39.94,-42.17l0.01 0.01zm0 24.35c8.49,0 13.08,3.9 13.08,16.01l0 25.6c0,12.11 -4.59,16.01 -13.08,16.01l-12.66 0 0 -57.61 12.66 0zm123.16 145.99l42.31 0c26.72,0 39.94,-14.89 39.94,-42.17l0 -86.15c0,-27.28 -13.08,-42.17 -39.94,-42.17l-42.31 0 0 170.34 0 0.15zm41.89 -145.99c8.49,0 13.64,4.32 13.64,16.56l0 88.51c0,12.11 -5.15,16.56 -13.64,16.56l-15.03 0 0 -121.64 15.03 0 0 0.01zm211.54 145.99c-2.64,-6.27 -2.92,-12.39 -2.92,-20.73l0 -26.31c0,-17.81 -4.32,-30.61 -17.81,-36.33 11.97,-5.56 17.53,-16.98 17.53,-34.51l0 -13.36c0,-26.31 -11.97,-39.25 -39.66,-39.25l-40.36 0 0 170.34 26.72 0 0 -69.3 9.19 0c12.11,0 17.53,5.84 17.53,21.71l0 26.72c0,13.92 0.97,16.56 2.37,20.88l27.28 0 0.14 0.15zm-43.56 -145.99c9.47,0 13.64,5.29 13.64,17.53l0 16.84c0,13.64 -6.12,17.95 -16.01,17.95l-10.44 0 0 -52.33 12.94 0 -0.13 0.01zm127.89 -24.35l0 129.71c0,27.28 13.64,42.86 39.94,42.86 26.31,0 39.94,-15.58 39.94,-42.86l0 -129.71 -25.33 0 0 131.38c0,12.11 -5.29,16.56 -13.92,16.56 -8.49,0 -13.92,-4.32 -13.92,-16.56l0 -131.38 -26.72 0zm230.06 170.34l27.55 0 -37.3 -94.35 37.3 -75.99 -26.72 0 -35.07 74.18 0 -74.18 -26.72 0 0 170.34 26.72 0 0 -52.33 8.21 -15.58 26.03 67.92zm169.92 -170.34l-39.25 0 -27.28 170.34 24.63 0 4.59 -30.9 32.84 0 4.59 30.9 26.99 0 -27.27 -170.34 0.16 0zm-20.88 30.19l12.94 86.15 -25.75 0 12.94 -86.15 -0.14 0zm128.03 10.72c0,48.71 52.33,55.25 52.33,90.32 0,12.11 -5.29,16.56 -13.92,16.56 -8.49,0 -13.92,-4.32 -13.92,-16.56l0 -12.11 -25.33 0 0 10.44c0,27.28 13.64,42.86 39.94,42.86 26.31,0 39.94,-15.58 39.94,-42.86 0,-48.71 -52.33,-55.25 -52.33,-90.32 0,-12.11 4.87,-16.84 13.36,-16.84 8.49,0 13.36,4.59 13.36,16.84l0 7.1 25.33 0 0 -5.29c0,-27.28 -13.36,-42.86 -39.39,-42.86 -26.03,0 -39.39,15.58 -39.39,42.86l0 -0.14zm302.55 0c0,48.71 52.33,55.25 52.33,90.32 0,12.11 -5.29,16.56 -13.92,16.56 -8.49,0 -13.92,-4.32 -13.92,-16.56l0 -12.11 -25.33 0 0 10.44c0,27.28 13.64,42.86 39.94,42.86 26.31,0 39.94,-15.58 39.94,-42.86 0,-48.71 -52.33,-55.25 -52.33,-90.32 0,-12.11 4.87,-16.84 13.36,-16.84 8.49,0 13.36,4.59 13.36,16.84l0 7.1 25.33 0 0 -5.29c0,-27.28 -13.36,-42.86 -39.39,-42.86 -26.03,0 -39.39,15.58 -39.39,42.86l0 -0.14zm192.06 -16.57l46.21 0 0 -24.36 -73.07 0 0 170.34 73.07 0 0 -24.36 -46.21 0 0 -49.82 36.74 0 0 -24.36 -36.74 0 0 -47.45 0 0.01zm216.96 145.99c-2.64,-6.27 -2.92,-12.39 -2.92,-20.73l0 -26.31c0,-17.81 -4.32,-30.61 -17.81,-36.33 11.97,-5.56 17.53,-16.98 17.53,-34.51l0 -13.36c0,-26.31 -11.97,-39.25 -39.66,-39.25l-40.36 0 0 170.34 26.72 0 0 -69.3 9.19 0c12.11,0 17.53,5.84 17.53,21.71l0 26.72c0,13.92 0.97,16.56 2.37,20.88l27.28 0 0.14 0.15zm-43.56 -145.99c9.47,0 13.64,5.29 13.64,17.53l0 16.84c0,13.64 -6.12,17.95 -16.01,17.95l-10.44 0 0 -52.33 12.94 0 -0.13 0.01zm148.49 -24.35l-27 0 26.31 170.34 39.94 0 26.31 -170.34 -24.63 0 -20.45 138.9 -20.45 -138.9 -0.02 0zm148.78 170.34l26.72 0 0 -170.34 -26.72 0 0 170.34zm113.7 -129.43c0,48.71 52.33,55.25 52.33,90.32 0,12.11 -5.29,16.56 -13.92,16.56 -8.49,0 -13.92,-4.32 -13.92,-16.56l0 -12.11 -25.33 0 0 10.44c0,27.28 13.64,42.86 39.94,42.86 26.31,0 39.94,-15.58 39.94,-42.86 0,-48.71 -52.33,-55.25 -52.33,-90.32 0,-12.11 4.87,-16.84 13.36,-16.84 8.49,0 13.36,4.59 13.36,16.84l0 7.1 25.33 0 0 -5.29c0,-27.28 -13.36,-42.86 -39.39,-42.86 -26.03,0 -39.39,15.58 -39.39,42.86l0 -0.14zm161.99 0c0,48.71 52.33,55.25 52.33,90.32 0,12.11 -5.29,16.56 -13.92,16.56 -8.49,0 -13.92,-4.32 -13.92,-16.56l0 -12.11 -25.33 0 0 10.44c0,27.28 13.64,42.86 39.94,42.86 26.31,0 39.94,-15.58 39.94,-42.86 0,-48.71 -52.33,-55.25 -52.33,-90.32 0,-12.11 4.87,-16.84 13.36,-16.84 8.49,0 13.36,4.59 13.36,16.84l0 7.1 25.33 0 0 -5.29c0,-27.28 -13.36,-42.86 -39.39,-42.86 -26.03,0 -39.39,15.58 -39.39,42.86l0 -0.14z"/>
 </g>
</svg>
